<?xml version="1.0" standalone="no"?><!DOCTYPE svg PUBLIC "-//W3C//DTD SVG 1.1//EN" "http://www.w3.org/Graphics/SVG/1.1/DTD/svg11.dtd">
<svg t="1559092464330" class="icon" style="" viewBox="0 0 1024 1024" version="1.1" xmlns="http://www.w3.org/2000/svg"
     p-id="2403"
     width="14" height="14"><defs><style type="text/css"></style></defs><path d="M826.048 856.192v2.048a32.256 32.256 0 0 1-32.192 32.256h-697.6A32.256 32.256 0 0 1 64 856.192c0-44.224 6.4-73.472 19.136-87.744 31.616-35.328 99.264-66.432 166.016-90.048 66.688-23.488 104.576-61.184 104.576-82.368 0-14.592-7.04-48-20.48-69.76-39.552-43.264-65.344-109.696-65.344-187.392 0-136.512 63.488-209.088 173.248-210.816h4.288s1.92-0.128 5.12 0C559.68 130.368 622.72 202.88 622.72 338.88c0 68.096-19.84 127.552-51.328 170.24h1.6a30.144 30.144 0 0 0-3.072 1.92 206.912 206.912 0 0 1-14.4 17.216c-12.8 21.76-19.584 53.632-19.584 67.84 0 21.12 40.192 58.88 106.816 82.304 66.624 23.616 140.736 59.2 163.84 91.904 13.632 19.328 18.112 57.664 19.52 85.888z m58.56-46.08c-2.752-21.504-7.936-42.88-17.536-55.68-23.808-31.552-79.808-65.856-148.224-88.576-68.416-22.656-109.632-59.008-109.632-79.36 0-13.696 7.04-44.48 20.096-65.408 41.728-41.664 68.992-106.56 68.992-182.592 0-79.68-23.872-136.768-67.712-169.792a204.8 204.8 0 0 1 11.648-0.32c93.696 0 147.968 61.184 147.968 177.472 0 66.432-22.144 123.008-56.064 159.36a138.624 138.624 0 0 0-16.32 57.088c0 17.92 33.472 49.6 89.088 69.376 55.68 19.84 117.44 49.792 136.768 77.312 11.392 16.256 15.104 48.576 16.32 74.048a27.008 27.008 0 0 1-26.88 27.136h-48.512z" p-id="2404" fill="#579bd8"></path></svg>