<?xml version="1.0" standalone="no"?><!DOCTYPE svg PUBLIC "-//W3C//DTD SVG 1.1//EN" "http://www.w3.org/Graphics/SVG/1.1/DTD/svg11.dtd">
<svg t="1559613754463" class="icon" style="" viewBox="0 0 1024 1024" version="1.1" xmlns="http://www.w3.org/2000/svg"
     p-id="29304"
     width="14" height="14"><defs><style type="text/css"></style></defs><path d="M323.368421 512m-296.421053 0a296.421053 296.421053 0 1 0 592.842106 0 296.421053 296.421053 0 1 0-592.842106 0Z" fill="#FFFFFF" p-id="29305"></path><path d="M700.631579 512m-296.421053 0a296.421053 296.421053 0 1 0 592.842106 0 296.421053 296.421053 0 1 0-592.842106 0Z" fill="#5492CA" p-id="29306"></path><path d="M700.631579 188.631579c-70.494316 0-135.491368 22.797474-188.631579 61.089684A321.428211 321.428211 0 0 0 323.368421 188.631579C144.788211 188.631579 0 333.419789 0 512s144.788211 323.368421 323.368421 323.368421c70.494316 0 135.491368-22.797474 188.631579-61.089684A321.428211 321.428211 0 0 0 700.631579 835.368421c178.580211 0 323.368421-144.788211 323.368421-323.368421S879.211789 188.631579 700.631579 188.631579zM323.368421 808.421053C159.932632 808.421053 26.947368 675.435789 26.947368 512S159.932632 215.578947 323.368421 215.578947c61.736421 0 119.080421 18.997895 166.588632 51.415579C421.052632 326.305684 377.263158 413.965474 377.263158 512c0 98.034526 43.789474 185.694316 112.693895 245.005474A294.588632 294.588632 0 0 1 323.368421 808.421053z m296.421053-296.421053c0 91.836632-42.010947 174.053053-107.789474 228.486737a296.016842 296.016842 0 0 1 0-456.973474c65.778526 54.433684 107.789474 136.650105 107.789474 228.486737z m80.842105 296.421053c-61.736421 0-119.080421-18.997895-166.588632-51.415579C602.947368 697.694316 646.736842 610.034526 646.736842 512c0-98.034526-43.789474-185.694316-112.693895-245.005474A294.588632 294.588632 0 0 1 700.631579 215.578947c163.435789 0 296.421053 132.985263 296.421053 296.421053s-132.985263 296.421053-296.421053 296.421053z" fill="#9B9DB1" p-id="29307"></path><path d="M404.210526 512c0 92.052211 41.957053 174.295579 107.789474 228.648421 65.832421-54.379789 107.789474-136.623158 107.789474-228.648421s-41.957053-174.295579-107.789474-228.648421A295.747368 295.747368 0 0 0 404.210526 512z" fill="#5492CA" p-id="29308"></path></svg>